<?xml version="1.0" encoding="utf-8"?>
<!-- Generator: Adobe Illustrator 26.0.3, SVG Export Plug-In . SVG Version: 6.00 Build 0)  -->
<svg version="1.1" id="Layer_1" xmlns="http://www.w3.org/2000/svg" xmlns:xlink="http://www.w3.org/1999/xlink" x="0px" y="0px"
	 viewBox="0 0 250 90" style="enable-background:new 0 0 250 90;" xml:space="preserve">
<style type="text/css">
	.st0{fill:#D2959F;}
	.st1{fill:#EEEEEE;}
</style>
<g>
	<path class="st0" d="M55.2,62.1c-0.5,0-1,0-1.5,0s-1,0-1.5,0h-1.3v-8.5h3.8c0.4,0,0.7,0.1,1.1,0.2c0.3,0.1,0.6,0.3,0.9,0.5
		c0.3,0.2,0.5,0.5,0.6,0.7c0.1,0.3,0.2,0.6,0.2,0.9c0,0.2,0,0.4-0.1,0.6c-0.1,0.2-0.2,0.4-0.3,0.6s-0.2,0.3-0.4,0.4
		s-0.3,0.2-0.4,0.2c0.1,0,0.2,0,0.3,0.1s0.2,0.1,0.3,0.1c0.2,0.1,0.3,0.2,0.4,0.4c0.1,0.1,0.2,0.3,0.3,0.5s0.1,0.3,0.2,0.5
		c0,0.2,0.1,0.3,0.1,0.5c0,0.3-0.1,0.6-0.2,0.9c-0.1,0.3-0.3,0.5-0.6,0.8c-0.3,0.2-0.6,0.4-0.9,0.5C56,62.1,55.6,62.1,55.2,62.1z
		 M52.1,54.6v2.8h2.7c0.2,0,0.4,0,0.6-0.1c0.2-0.1,0.4-0.2,0.5-0.3c0.2-0.1,0.3-0.3,0.4-0.4c0.1-0.2,0.1-0.3,0.1-0.5
		c0-0.2,0-0.4-0.1-0.5S56.1,55.1,56,55s-0.3-0.2-0.5-0.3c-0.2-0.1-0.4-0.1-0.6-0.1H52.1z M55.2,61.2c0.2,0,0.5,0,0.7-0.1
		c0.2-0.1,0.4-0.2,0.5-0.3c0.2-0.1,0.3-0.3,0.4-0.5c0.1-0.2,0.1-0.4,0.1-0.6c0-0.2,0-0.4-0.1-0.6c-0.1-0.2-0.2-0.3-0.3-0.5
		s-0.3-0.2-0.5-0.3c-0.2-0.1-0.4-0.1-0.7-0.1h-3.2v2.9L55.2,61.2L55.2,61.2z"/>
	<path class="st0" d="M64.7,53.6h1c0.1,0.2,0.2,0.4,0.4,0.7s0.3,0.6,0.5,1c0.2,0.4,0.4,0.8,0.6,1.2c0.2,0.4,0.4,0.9,0.7,1.3
		s0.5,0.9,0.7,1.3c0.2,0.4,0.4,0.8,0.6,1.2s0.4,0.7,0.5,1s0.3,0.5,0.4,0.7h-0.6c-0.2,0-0.4,0-0.5-0.1c-0.2-0.1-0.3-0.2-0.4-0.4
		l-0.8-1.5h-5.3l-0.7,1.5c-0.1,0.2-0.2,0.3-0.4,0.4c-0.2,0.1-0.3,0.1-0.5,0.1h-0.6L64.7,53.6z M63,59.2h4.3l-2-4
		c0-0.1-0.1-0.2-0.1-0.3s0-0.2,0-0.2c0,0,0,0.1,0,0.1s0,0.1,0,0.1c0,0,0,0.1,0,0.1c0,0,0,0.1-0.1,0.1L63,59.2z"/>
	<path class="st0" d="M73,62.2v-8.5h1.1v7.6h4.4v1H73z"/>
	<path class="st0" d="M81.9,62.2v-8.5H83v7.6h4.4v1H81.9z"/>
	<path class="st0" d="M96.8,62.2h-6.1v-8.5h6.1v1h-4.9v2.8h4v1h-4v2.9h4.9V62.2z"/>
	<path class="st0" d="M99.5,54.6v-1h7.5v1h-3.2v7.6h-1.1v-7.6H99.5z"/>
	<path class="st0" d="M124.7,58.3c-0.2,0.3-0.4,0.8-0.7,1.5c-0.3,0.6-0.7,1.4-1.2,2.4h-1l-4.5-8.5h0.6c0.2,0,0.4,0,0.5,0.1
		c0.2,0.1,0.3,0.2,0.3,0.4l3.4,6.4c0,0.1,0.1,0.2,0.1,0.3c0,0.1,0,0.2,0,0.2c0,0,0-0.1,0-0.1c0,0,0-0.1,0-0.1c0,0,0-0.1,0-0.1
		c0,0,0-0.1,0.1-0.1l3.3-6.4c0.1-0.1,0.2-0.3,0.4-0.4c0.2-0.1,0.3-0.1,0.5-0.1h0.6c-0.3,0.6-0.7,1.3-1,1.9c-0.3,0.6-0.7,1.3-1,1.9
		l1.6,3c0,0,0,0.1,0.1,0.1c0,0,0,0.1,0,0.1c0,0,0,0.1,0,0.1c0,0,0,0.1,0,0.1c0-0.1,0-0.1,0-0.2c0-0.1,0.1-0.2,0.1-0.3l3.3-6.4
		c0.1-0.1,0.2-0.3,0.3-0.4c0.2-0.1,0.3-0.1,0.5-0.1h0.6l-4.4,8.5h-1l-1.3-2.6c-0.1-0.2-0.2-0.3-0.2-0.5c-0.1-0.2-0.1-0.3-0.1-0.5
		c0-0.1,0-0.1,0-0.2C124.6,58.4,124.6,58.4,124.7,58.3z"/>
	<path class="st0" d="M133.5,57.9c0-0.4,0.1-0.8,0.2-1.2c0.1-0.4,0.3-0.7,0.5-1s0.5-0.6,0.8-0.9s0.7-0.5,1-0.7
		c0.4-0.2,0.8-0.3,1.2-0.4c0.4-0.1,0.9-0.2,1.4-0.2s0.9,0.1,1.4,0.2c0.4,0.1,0.8,0.2,1.2,0.4c0.4,0.2,0.7,0.4,1,0.7s0.6,0.6,0.8,0.9
		s0.4,0.7,0.5,1c0.1,0.4,0.2,0.8,0.2,1.2c0,0.6-0.1,1.2-0.4,1.7c-0.3,0.5-0.6,1-1.1,1.4s-1,0.7-1.6,0.9c-0.6,0.2-1.3,0.3-2,0.3
		c-0.7,0-1.4-0.1-2-0.3c-0.6-0.2-1.2-0.5-1.6-0.9s-0.8-0.9-1.1-1.4C133.7,59.1,133.5,58.5,133.5,57.9z M134.7,57.9
		c0,0.3,0,0.6,0.1,0.9c0.1,0.3,0.2,0.6,0.4,0.8c0.2,0.3,0.4,0.5,0.6,0.7c0.2,0.2,0.5,0.4,0.8,0.5c0.3,0.1,0.6,0.3,0.9,0.3
		s0.7,0.1,1.1,0.1c0.4,0,0.7,0,1.1-0.1s0.7-0.2,1-0.3c0.3-0.1,0.6-0.3,0.8-0.5c0.2-0.2,0.4-0.4,0.6-0.7c0.2-0.3,0.3-0.5,0.4-0.8
		c0.1-0.3,0.1-0.6,0.1-0.9c0-0.5-0.1-0.9-0.3-1.3s-0.5-0.8-0.9-1.1s-0.8-0.5-1.3-0.7c-0.5-0.2-1-0.3-1.5-0.3c-0.5,0-1.1,0.1-1.5,0.3
		c-0.5,0.2-0.9,0.4-1.3,0.7s-0.6,0.7-0.9,1.1C134.8,57,134.7,57.4,134.7,57.9z"/>
	<path class="st0" d="M148.5,62.2h-1.1v-8.5h3.5c0.4,0,0.8,0.1,1.1,0.2c0.3,0.1,0.7,0.3,0.9,0.5c0.3,0.2,0.5,0.5,0.6,0.8
		c0.1,0.3,0.2,0.6,0.2,1c0,0.3-0.1,0.6-0.2,0.8c-0.1,0.3-0.3,0.5-0.4,0.7s-0.4,0.4-0.7,0.5s-0.6,0.2-0.9,0.3l3.2,3.7h-0.7
		c-0.3,0-0.5,0-0.7-0.1c-0.2-0.1-0.4-0.2-0.5-0.4l-2.8-3.1h-1.8L148.5,62.2L148.5,62.2z M148.5,54.6v2.9h2.4c0.2,0,0.5,0,0.7-0.1
		c0.2-0.1,0.4-0.2,0.6-0.3c0.2-0.1,0.3-0.3,0.4-0.5c0.1-0.2,0.1-0.4,0.1-0.6c0-0.2,0-0.4-0.1-0.6s-0.2-0.3-0.4-0.5
		c-0.2-0.1-0.3-0.2-0.6-0.3c-0.2-0.1-0.4-0.1-0.7-0.1L148.5,54.6L148.5,54.6z"/>
	<path class="st0" d="M159.2,62.2H158v-8.5h1.1V62.2z M163.4,54.1c0.1-0.2,0.3-0.3,0.5-0.4c0.2-0.1,0.4-0.1,0.7-0.1h0.8l-3.7,3.9
		c-0.1,0.1-0.1,0.1-0.2,0.2c0,0-0.1,0-0.1,0c0,0,0,0,0.1,0c0,0,0.1,0.1,0.2,0.1l4,4.2h-0.8c-0.2,0-0.5,0-0.7-0.1s-0.3-0.2-0.5-0.4
		l-3.4-3.6c-0.1-0.1-0.2-0.2-0.3-0.2c-0.1,0-0.1-0.1-0.1-0.1c0,0,0.1,0,0.1-0.1c0.1,0,0.2-0.1,0.3-0.2L163.4,54.1z"/>
	<path class="st0" d="M168.2,57.9c0-0.4,0.1-0.8,0.2-1.2c0.1-0.4,0.3-0.7,0.5-1s0.5-0.6,0.8-0.9s0.7-0.5,1-0.7
		c0.4-0.2,0.8-0.3,1.2-0.4c0.4-0.1,0.9-0.2,1.4-0.2s0.9,0.1,1.4,0.2c0.4,0.1,0.8,0.2,1.2,0.4c0.4,0.2,0.7,0.4,1,0.7s0.6,0.6,0.8,0.9
		s0.4,0.7,0.5,1c0.1,0.4,0.2,0.8,0.2,1.2c0,0.6-0.1,1.2-0.4,1.7c-0.3,0.5-0.6,1-1.1,1.4s-1,0.7-1.6,0.9c-0.6,0.2-1.3,0.3-2,0.3
		c-0.7,0-1.4-0.1-2-0.3c-0.6-0.2-1.2-0.5-1.6-0.9s-0.8-0.9-1.1-1.4C168.3,59.1,168.2,58.5,168.2,57.9z M169.3,57.9
		c0,0.3,0,0.6,0.1,0.9c0.1,0.3,0.2,0.6,0.4,0.8c0.2,0.3,0.4,0.5,0.6,0.7c0.2,0.2,0.5,0.4,0.8,0.5c0.3,0.1,0.6,0.3,0.9,0.3
		s0.7,0.1,1.1,0.1c0.4,0,0.7,0,1.1-0.1s0.7-0.2,1-0.3c0.3-0.1,0.6-0.3,0.8-0.5c0.2-0.2,0.4-0.4,0.6-0.7c0.2-0.3,0.3-0.5,0.4-0.8
		c0.1-0.3,0.1-0.6,0.1-0.9c0-0.5-0.1-0.9-0.3-1.3s-0.5-0.8-0.9-1.1s-0.8-0.5-1.3-0.7c-0.5-0.2-1-0.3-1.5-0.3c-0.5,0-1.1,0.1-1.5,0.3
		c-0.5,0.2-0.9,0.4-1.3,0.7s-0.6,0.7-0.9,1.1C169.4,57,169.3,57.4,169.3,57.9z"/>
	<path class="st0" d="M182.9,58.9c0,0.3,0.1,0.7,0.2,1c0.1,0.3,0.4,0.6,0.6,0.8c0.3,0.2,0.6,0.4,0.9,0.5c0.3,0.1,0.7,0.2,1.1,0.2
		s0.8-0.1,1.1-0.2s0.6-0.3,0.9-0.5c0.3-0.2,0.5-0.5,0.6-0.8c0.2-0.3,0.2-0.6,0.2-1v-5.2h1.1v5.2c0,0.5-0.1,0.9-0.3,1.3
		s-0.5,0.8-0.9,1.1s-0.8,0.5-1.3,0.7c-0.5,0.2-1,0.3-1.5,0.3s-1.1-0.1-1.5-0.3c-0.5-0.2-0.9-0.4-1.3-0.7s-0.6-0.7-0.9-1.1
		s-0.3-0.9-0.3-1.3v-5.2h1.1L182.9,58.9L182.9,58.9z"/>
	<path class="st0" d="M192.7,54.6v-1h7.5v1H197v7.6h-1.1v-7.6H192.7z"/>
</g>
<image style="overflow:visible;enable-background:new    ;" width="45" height="6" id="Rectangle_1_xA0_Image" xlink:href="BA3E5C9323EB0E9.png"  transform="matrix(0.1561 0 0 0.1561 32.8038 57.2617)">
</image>
<image style="overflow:visible;enable-background:new    ;" width="42" height="6" id="Rectangle_1_copy_xA0_Image" xlink:href="BA3E5C9323EB0EB.png"  transform="matrix(0.1561 0 0 0.1561 208.2324 57.2617)">
</image>
<g>
	<path class="st1" d="M19,35.8h-3.1v12.3h-2.4V35.8h-3.1v-2.2H19L19,35.8L19,35.8z"/>
	<path class="st1" d="M29,46.4h-5.1l-0.6,1.7h-2.6l5.8-14.9l5.8,14.9h-2.6L29,46.4z M24.6,44.3h3.5l-1.8-5L24.6,44.3z"/>
	<path class="st1" d="M41.3,35.8h-3.1v12.3h-2.4V35.8h-3.1v-2.2h8.5L41.3,35.8L41.3,35.8z"/>
	<path class="st1" d="M47,36v3.6h6v2.4h-6v3.6h7.3v2.4h-9.7V33.6h9.7V36H47z"/>
	<path class="st1" d="M68,33.6l-5.8,14.8l-5.8-14.8H59l3.2,8.5l3.2-8.5H68z"/>
	<path class="st1" d="M71,33.6h2.4v14.5H71C71,48.1,71,33.6,71,33.6z"/>
	<path class="st1" d="M83.4,41l6,7.1h-3.2l-4.5-5.5l-1.4,1.5v4H78V33.6h2.4v7.3l6-7.3h3L83.4,41z"/>
	<path class="st1" d="M111.2,48.1h-2.4v-8.9l-4.2,8.9h-2.3L97.9,39v9.1h-2.4V33.6h2.5l5.5,11.3l5.3-11.3h2.5
		C111.2,33.6,111.2,48.1,111.2,48.1z"/>
	<path class="st1" d="M121.2,41l6,7.1H124l-4.5-5.5l-1.4,1.5v4h-2.4V33.6h2.4v7.3l6-7.3h3L121.2,41z"/>
	<path class="st1" d="M134.8,42.1h-2v6h-2.4V33.6h4.8c0,0,4.9,0,4.9,4.2c0,2.3-1.5,3.4-2.8,3.8l3,6.4h-2.7L134.8,42.1z M132.8,39.7
		h2.4c0,0,2.4,0,2.4-1.8c0-1.8-2.4-1.8-2.4-1.8h-2.4V39.7z"/>
	<path class="st1" d="M151.4,35.8h-3.1v12.3h-2.4V35.8h-3.1v-2.2h8.5L151.4,35.8L151.4,35.8z"/>
	<path class="st1" d="M161.3,48.3c-9.6,0-9.6-14.8,0-14.8C170.8,33.4,170.8,48.3,161.3,48.3z M161.3,35.8c-6.3,0-6.3,10.2,0,10.2
		C167.6,45.9,167.6,35.8,161.3,35.8z"/>
	<path class="st1" d="M172.5,43.5v-9.8h2.4v9.8c0.1,1.7,1.5,2.4,3,2.4c1.5,0,3-0.8,3-2.4v-9.8h2.4v9.8c0,3.1-2.4,4.8-5.5,4.8
		C174.9,48.3,172.5,46.4,172.5,43.5z"/>
	<path class="st1" d="M203.6,48.1h-2.4v-8.9l-4.2,8.9h-2.3l-4.4-9.1v9.1h-2.4V33.6h2.5l5.5,11.3l5.3-11.3h2.5L203.6,48.1L203.6,48.1
		z"/>
	<path class="st1" d="M208.2,33.6h2.4v14.5h-2.4V33.6z"/>
	<path class="st1" d="M221.9,46.4h-5.1l-0.6,1.7h-2.6l5.8-14.9l5.8,14.9h-2.6L221.9,46.4z M217.6,44.3h3.5l-1.8-5L217.6,44.3z"/>
	<path class="st1" d="M240.2,48.1h-2.5l-7.2-10.3v10.3h-2.4V33.6h2.4l7.2,10.3V33.6h2.4L240.2,48.1L240.2,48.1z"/>
</g>
</svg>
